<mxfile host="app.diagrams.net" agent="Mozilla/5.0 (Windows NT 10.0; Win64; x64) AppleWebKit/537.36 (KHTML, like Gecko) Chrome/136.0.0.0 Safari/537.36" version="27.0.5">
  <diagram name="Page-1" id="SMKD9_19TWpEBGV3zaZY">
    <mxGraphModel dx="1042" dy="580" grid="1" gridSize="10" guides="1" tooltips="1" connect="1" arrows="1" fold="1" page="1" pageScale="1" pageWidth="850" pageHeight="1100" math="0" shadow="0">
      <root>
        <mxCell id="0" />
        <mxCell id="1" parent="0" />
        <mxCell id="oI-TqzqbOzynh0GgfvXg-11" value="&amp;nbsp; &amp;nbsp; AWS SES" style="rounded=0;whiteSpace=wrap;html=1;" vertex="1" parent="1">
          <mxGeometry x="380" y="330" width="110" height="40" as="geometry" />
        </mxCell>
        <mxCell id="oI-TqzqbOzynh0GgfvXg-15" style="edgeStyle=orthogonalEdgeStyle;rounded=0;orthogonalLoop=1;jettySize=auto;html=1;" edge="1" parent="1" source="oI-TqzqbOzynh0GgfvXg-1">
          <mxGeometry relative="1" as="geometry">
            <mxPoint x="380" y="150" as="targetPoint" />
          </mxGeometry>
        </mxCell>
        <mxCell id="oI-TqzqbOzynh0GgfvXg-1" value="Client: React + Redux + Router + MUI + Toaster" style="rounded=0;whiteSpace=wrap;html=1;fillColor=#dae8fc;strokeColor=#6c8ebf;" vertex="1" parent="1">
          <mxGeometry x="270" y="50" width="220" height="60" as="geometry" />
        </mxCell>
        <mxCell id="oI-TqzqbOzynh0GgfvXg-9" value="" style="group;" vertex="1" connectable="0" parent="1">
          <mxGeometry x="270" y="150" width="220" height="140" as="geometry" />
        </mxCell>
        <mxCell id="oI-TqzqbOzynh0GgfvXg-7" style="edgeStyle=orthogonalEdgeStyle;rounded=0;orthogonalLoop=1;jettySize=auto;html=1;entryX=0.635;entryY=0.035;entryDx=0;entryDy=0;entryPerimeter=0;" edge="1" parent="oI-TqzqbOzynh0GgfvXg-9" source="oI-TqzqbOzynh0GgfvXg-2" target="oI-TqzqbOzynh0GgfvXg-4">
          <mxGeometry relative="1" as="geometry">
            <Array as="points">
              <mxPoint x="100" y="75" />
              <mxPoint x="40" y="75" />
              <mxPoint x="40" y="90" />
              <mxPoint x="49" y="90" />
            </Array>
          </mxGeometry>
        </mxCell>
        <mxCell id="oI-TqzqbOzynh0GgfvXg-8" style="edgeStyle=orthogonalEdgeStyle;rounded=0;orthogonalLoop=1;jettySize=auto;html=1;" edge="1" parent="oI-TqzqbOzynh0GgfvXg-9" source="oI-TqzqbOzynh0GgfvXg-2" target="oI-TqzqbOzynh0GgfvXg-5">
          <mxGeometry relative="1" as="geometry" />
        </mxCell>
        <mxCell id="oI-TqzqbOzynh0GgfvXg-2" value="API: Hapi.js + Sequelize" style="rounded=0;whiteSpace=wrap;html=1;fillColor=#ffe6cc;strokeColor=#d79b00;" vertex="1" parent="oI-TqzqbOzynh0GgfvXg-9">
          <mxGeometry width="220" height="50" as="geometry" />
        </mxCell>
        <mxCell id="oI-TqzqbOzynh0GgfvXg-4" value="User module" style="rounded=0;whiteSpace=wrap;html=1;fillColor=#ffe6cc;strokeColor=#d79b00;" vertex="1" parent="oI-TqzqbOzynh0GgfvXg-9">
          <mxGeometry y="100" width="77.5" height="40" as="geometry" />
        </mxCell>
        <mxCell id="oI-TqzqbOzynh0GgfvXg-5" value="Task module" style="rounded=0;whiteSpace=wrap;html=1;fillColor=#ffe6cc;strokeColor=#d79b00;" vertex="1" parent="oI-TqzqbOzynh0GgfvXg-9">
          <mxGeometry x="140" y="100" width="80" height="40" as="geometry" />
        </mxCell>
        <mxCell id="oI-TqzqbOzynh0GgfvXg-16" style="edgeStyle=orthogonalEdgeStyle;rounded=0;orthogonalLoop=1;jettySize=auto;html=1;entryX=1;entryY=0.75;entryDx=0;entryDy=0;" edge="1" parent="1" source="oI-TqzqbOzynh0GgfvXg-10" target="oI-TqzqbOzynh0GgfvXg-14">
          <mxGeometry relative="1" as="geometry" />
        </mxCell>
        <mxCell id="oI-TqzqbOzynh0GgfvXg-10" value="MYSQL" style="rounded=0;whiteSpace=wrap;html=1;fillColor=#d5e8d4;strokeColor=#82b366;" vertex="1" parent="1">
          <mxGeometry x="270" y="330" width="80" height="40" as="geometry" />
        </mxCell>
        <mxCell id="oI-TqzqbOzynh0GgfvXg-12" style="edgeStyle=orthogonalEdgeStyle;rounded=0;orthogonalLoop=1;jettySize=auto;html=1;entryX=0;entryY=0.75;entryDx=0;entryDy=0;exitX=0;exitY=0.5;exitDx=0;exitDy=0;" edge="1" parent="1" source="oI-TqzqbOzynh0GgfvXg-2" target="oI-TqzqbOzynh0GgfvXg-10">
          <mxGeometry relative="1" as="geometry">
            <Array as="points">
              <mxPoint x="240" y="175" />
              <mxPoint x="240" y="210" />
              <mxPoint x="250" y="210" />
              <mxPoint x="250" y="360" />
            </Array>
          </mxGeometry>
        </mxCell>
        <mxCell id="oI-TqzqbOzynh0GgfvXg-13" style="edgeStyle=orthogonalEdgeStyle;rounded=0;orthogonalLoop=1;jettySize=auto;html=1;entryX=1;entryY=0.5;entryDx=0;entryDy=0;" edge="1" parent="1" source="oI-TqzqbOzynh0GgfvXg-2" target="oI-TqzqbOzynh0GgfvXg-11">
          <mxGeometry relative="1" as="geometry">
            <Array as="points">
              <mxPoint x="540" y="175" />
              <mxPoint x="540" y="265" />
              <mxPoint x="510" y="265" />
              <mxPoint x="510" y="350" />
            </Array>
          </mxGeometry>
        </mxCell>
        <mxCell id="oI-TqzqbOzynh0GgfvXg-14" value="AWS ESC + RDS" style="rounded=0;whiteSpace=wrap;html=1;" vertex="1" parent="1">
          <mxGeometry x="305" y="420" width="120" height="70" as="geometry" />
        </mxCell>
        <mxCell id="oI-TqzqbOzynh0GgfvXg-17" value="" style="shape=image;imageAspect=0;aspect=fixed;verticalLabelPosition=bottom;verticalAlign=top;image=data:image/svg+xml,PHN2ZyB4bWxuczp4bGluaz0iaHR0cDovL3d3dy53My5vcmcvMTk5OS94bGluayIgeG1sbnM9Imh0dHA6Ly93d3cudzMub3JnLzIwMDAvc3ZnIiB2ZXJzaW9uPSIxLjEiIHZpZXdCb3g9Ii0wLjUgLTAuNSA4MSA4MSIgaGVpZ2h0PSI4MSIgd2lkdGg9IjgxIj4mI3hhOyAgICA8dGl0bGU+SWNvbi1BcmNoaXRlY3R1cmUvNjQvQXJjaF9BbWF6b24tU2ltcGxlLUVtYWlsLVNlcnZpY2VfNjQ8L3RpdGxlPiYjeGE7ICAgIDxkZWZzPiYjeGE7ICAgICAgICA8bGluZWFyR3JhZGllbnQgaWQ9ImxpbmVhckdyYWRpZW50LTEiIHkyPSIwJSIgeDI9IjEwMCUiIHkxPSIxMDAlIiB4MT0iMCUiPiYjeGE7ICAgICAgICAgICAgPHN0b3Agb2Zmc2V0PSIwJSIgc3RvcC1jb2xvcj0iI0JEMDgxNiIvPiYjeGE7ICAgICAgICAgICAgPHN0b3Agb2Zmc2V0PSIxMDAlIiBzdG9wLWNvbG9yPSIjRkY1MjUyIi8+JiN4YTsgICAgICAgIDwvbGluZWFyR3JhZGllbnQ+JiN4YTsgICAgPC9kZWZzPiYjeGE7ICAgIDxnIGZpbGwtcnVsZT0iZXZlbm9kZCIgZmlsbD0ibm9uZSIgc3Ryb2tlLXdpZHRoPSIxIiBzdHJva2U9Im5vbmUiIGlkPSJJY29uLUFyY2hpdGVjdHVyZS82NC9BcmNoX0FtYXpvbi1TaW1wbGUtRW1haWwtU2VydmljZV82NCI+JiN4YTsgICAgICAgIDxnIGZpbGw9InVybCgjbGluZWFyR3JhZGllbnQtMSkiIGlkPSJSZWN0YW5nbGUiPiYjeGE7ICAgICAgICAgICAgPHJlY3QgaGVpZ2h0PSI4MCIgd2lkdGg9IjgwIiB5PSIwIiB4PSIwIi8+JiN4YTsgICAgICAgIDwvZz4mI3hhOyAgICAgICAgPHBhdGggZmlsbD0iI0ZGRkZGRiIgaWQ9IkFtYXpvbi1TaW1wbGUtRW1haWwtU2VydmljZV9JY29uXzY0X1NxdWlkIiBkPSJNNTcsNjAuOTk5ODc1IEM1Nyw1OS4zNzM4NDYgNTUuNjI2LDU3Ljk5OTgyMTQgNTQsNTcuOTk5ODIxNCBDNTIuMzc0LDU3Ljk5OTgyMTQgNTEsNTkuMzczODQ2IDUxLDYwLjk5OTg3NSBDNTEsNjIuNjI1OTA0IDUyLjM3NCw2My45OTk5Mjg2IDU0LDYzLjk5OTkyODYgQzU1LjYyNiw2My45OTk5Mjg2IDU3LDYyLjYyNTkwNCA1Nyw2MC45OTk4NzUgTDU3LDYwLjk5OTg3NSBaIE00MCw1OS45OTk4NTcxIEMzOC4zNzQsNTkuOTk5ODU3MSAzNyw2MS4zNzM4ODE3IDM3LDYyLjk5OTkxMDcgQzM3LDY0LjYyNTkzOTcgMzguMzc0LDY1Ljk5OTk2NDMgNDAsNjUuOTk5OTY0MyBDNDEuNjI2LDY1Ljk5OTk2NDMgNDMsNjQuNjI1OTM5NyA0Myw2Mi45OTk5MTA3IEM0Myw2MS4zNzM4ODE3IDQxLjYyNiw1OS45OTk4NTcxIDQwLDU5Ljk5OTg1NzEgTDQwLDU5Ljk5OTg1NzEgWiBNMjYsNTcuOTk5ODIxNCBDMjQuMzc0LDU3Ljk5OTgyMTQgMjMsNTkuMzczODQ2IDIzLDYwLjk5OTg3NSBDMjMsNjIuNjI1OTA0IDI0LjM3NCw2My45OTk5Mjg2IDI2LDYzLjk5OTkyODYgQzI3LjYyNiw2My45OTk5Mjg2IDI5LDYyLjYyNTkwNCAyOSw2MC45OTk4NzUgQzI5LDU5LjM3Mzg0NiAyNy42MjYsNTcuOTk5ODIxNCAyNiw1Ny45OTk4MjE0IEwyNiw1Ny45OTk4MjE0IFogTTI4LjYwNSw0Mi45OTk1NTM2IEw1MS4zOTUsNDIuOTk5NTUzNiBMNDMuNzM5LDM2LjExMDQzMDUgTDQwLjY0OSwzOC43NTg0Nzc4IEM0MC40NjMsMzguOTE5NDgwNyA0MC4yMywzOC45OTk0ODIxIDM5Ljk5OSwzOC45OTk0ODIxIEMzOS43NjgsMzguOTk5NDgyMSAzOS41MzUsMzguOTE5NDgwNyAzOS4zNDksMzguNzU4NDc3OCBMMzYuMjYsMzYuMTEwNDMwNSBMMjguNjA1LDQyLjk5OTU1MzYgWiBNMjcsMjguMTczMjg4OCBMMjcsNDEuNzU0NTMxMyBMMzQuNzI5LDM0Ljc5ODQwNzEgTDI3LDI4LjE3MzI4ODggWiBNNTEuMjk3LDI2Ljk5OTI2NzggTDI4LjcwMywyNi45OTkyNjc4IEwzOS45OTksMzYuNjgyNDQwOCBMNTEuMjk3LDI2Ljk5OTI2NzggWiBNNTMsNDEuNzU0NTMxMyBMNTMsMjguMTczMjg4OCBMNDUuMjcxLDM0Ljc5NzQwNzEgTDUzLDQxLjc1NDUzMTMgWiBNNTksNjAuOTk5ODc1IEM1OSw2My43MDk5MjM0IDU2LjcxLDY1Ljk5OTk2NDMgNTQsNjUuOTk5OTY0MyBDNTEuMjksNjUuOTk5OTY0MyA0OSw2My43MDk5MjM0IDQ5LDYwLjk5OTg3NSBDNDksNTguNjMwODMyNyA1MC43NSw1Ni41ODM3OTYxIDUzLDU2LjEwNTc4NzYgTDUzLDUyLjk5OTczMjEgTDQxLDUyLjk5OTczMjEgTDQxLDU4LjEwNTgyMzMgQzQzLjI1LDU4LjU4MzgzMTkgNDUsNjAuNjMwODY4NCA0NSw2Mi45OTk5MTA3IEM0NSw2NS43MDk5NTkxIDQyLjcxLDY4IDQwLDY4IEMzNy4yOSw2OCAzNSw2NS43MDk5NTkxIDM1LDYyLjk5OTkxMDcgQzM1LDYwLjYzMDg2ODQgMzYuNzUsNTguNTgzODMxOSAzOSw1OC4xMDU4MjMzIEwzOSw1Mi45OTk3MzIxIEwyNyw1Mi45OTk3MzIxIEwyNyw1Ni4xMDU3ODc2IEMyOS4yNSw1Ni41ODM3OTYxIDMxLDU4LjYzMDgzMjcgMzEsNjAuOTk5ODc1IEMzMSw2My43MDk5MjM0IDI4LjcxLDY1Ljk5OTk2NDMgMjYsNjUuOTk5OTY0MyBDMjMuMjksNjUuOTk5OTY0MyAyMSw2My43MDk5MjM0IDIxLDYwLjk5OTg3NSBDMjEsNTguNjMwODMyNyAyMi43NSw1Ni41ODM3OTYxIDI1LDU2LjEwNTc4NzYgTDI1LDUxLjk5OTcxNDMgQzI1LDUxLjQ0NzcwNDQgMjUuNDQ3LDUwLjk5OTY5NjQgMjYsNTAuOTk5Njk2NCBMMzksNTAuOTk5Njk2NCBMMzksNDQuOTk5NTg5MyBMMjYsNDQuOTk5NTg5MyBDMjUuNDQ3LDQ0Ljk5OTU4OTMgMjUsNDQuNTUxNTgxMyAyNSw0My45OTk1NzE0IEwyNSwyNS45OTkyNSBDMjUsMjUuNDQ3MjQwMSAyNS40NDcsMjQuOTk5MjMyMSAyNiwyNC45OTkyMzIxIEw1NCwyNC45OTkyMzIxIEM1NC41NTMsMjQuOTk5MjMyMSA1NSwyNS40NDcyNDAxIDU1LDI1Ljk5OTI1IEw1NSw0My45OTk1NzE0IEM1NSw0NC41NTE1ODEzIDU0LjU1Myw0NC45OTk1ODkzIDU0LDQ0Ljk5OTU4OTMgTDQxLDQ0Ljk5OTU4OTMgTDQxLDUwLjk5OTY5NjQgTDU0LDUwLjk5OTY5NjQgQzU0LjU1Myw1MC45OTk2OTY0IDU1LDUxLjQ0NzcwNDQgNTUsNTEuOTk5NzE0MyBMNTUsNTYuMTA1Nzg3NiBDNTcuMjUsNTYuNTgzNzk2MSA1OSw1OC42MzA4MzI3IDU5LDYwLjk5OTg3NSBMNTksNjAuOTk5ODc1IFogTTY4LDM5Ljk5OTUgQzY4LDQ1LjkwNjYwNTUgNjYuMTc3LDUxLjU1OTcwNjQgNjIuNzI3LDU2LjM0NDc5MTkgTDYxLjEwNCw1NS4xNzQ3NzEgQzY0LjMwNyw1MC43MzE2OTE2IDY2LDQ1LjQ4NDU5NzkgNjYsMzkuOTk5NSBDNjYsMjUuNjY0MjQ0IDU0LjMzNywxNC4wMDAwMzU3IDQwLjAwMSwxNC4wMDAwMzU3IEMyNS42NjQsMTQuMDAwMDM1NyAxNCwyNS42NjQyNDQgMTQsMzkuOTk5NSBDMTQsNDUuNDg0NTk3OSAxNS42OTMsNTAuNzMxNjkxNiAxOC44OTYsNTUuMTc0NzcxIEwxNy4yNzMsNTYuMzQ0NzkxOSBDMTMuODIzLDUxLjU1OTcwNjQgMTIsNDUuOTA2NjA1NSAxMiwzOS45OTk1IEMxMiwyNC41NjEyMjQzIDI0LjU2MSwxMiAzOS45OTksMTIgQzU1LjQzOCwxMiA2OCwyNC41NjEyMjQzIDY4LDM5Ljk5OTUgTDY4LDM5Ljk5OTUgWiIvPiYjeGE7ICAgIDwvZz4mI3hhOzwvc3ZnPg==;" vertex="1" parent="1">
          <mxGeometry x="390" y="340" width="20" height="20" as="geometry" />
        </mxCell>
        <mxCell id="oI-TqzqbOzynh0GgfvXg-18" value="" style="shape=image;imageAspect=0;aspect=fixed;verticalLabelPosition=bottom;verticalAlign=top;image=data:image/webp,UklGRtgTAABXRUJQVlA4WAoAAAAYAAAAxQEA/wEAQUxQSNsKAAAB8IBt//q0/f89k1fyIthWKC208CYJdZ27u/twq3ej2Ny9nbu7uxTqTqhSmyB195ZQDSGvBPK8p0jyylPeloiYAMKq5tTC5T4wpndJYaqZCFUlbUSVl4I5qbdqRJoiToz2cZVugEUAd+U4u1GQdC+a46RgFVDnnKLuIsSSXnPIj78yCuA/VJNuERymlPxVPvwjswDwrcpPjRAXir2wyot2sgzgXVY6WBUTRvvYCjfazTaAv/ruoWYBkVA0y0nBUsCxpY9YRYMlveagHx1lH+DY2pI4gWBKzlvpRSeyENC2+Y4+EWJAsRVWedGpbASgtmyQyn9G++iKFnQyM4E67hpq5ryE22c6KVgPcC152MZzlvRlTX50PksBx9aUxHFahH30Cg9FV7IV0LqpzB7BX+rAslp0NWsBqC0bqPKVeeidDgr+AHXcOdTMUfaHFrsQgCwGuBY/ZOeluJKGowhINgOONpTEcZBqK93gQ4CyGuDbUGpT+UYdUFaLwGU3ALVlA1R+MQ8pdyCQmQ5wlA8xc4r9wUUu8BNcix6080hcSd1RBDjrAUfrSuI4Q00tWa8h4NkP0NaXpKr8oA4orUMw8gCAutIBKh+Yh5Q5EJycADjKhpg5IO2BhS7wHVwLH0hjvbjS2qMIWn4AjtaWxjGcmjJhnQdBzBOAZ92EFAubqQNK6hDcfAGg7vETY9jLPKSkGsHOHUDdo2dGsZUh7f5qF8QDPD8/d5qRoeLKfj0CHeQRwL3umTRGMicXrWmBLvIJ4N02aYCFfdT+xXXQS14BsGPiCdFsYx5cvBD6yTFA/SNnRrGLoc99jmaIEXhWP3OakVHiyn8+Al3lG8C95pk0BomwlTW4obO8A2hbnuoXwRbRwyfugP7yD4AdE4dHs0PUGQ/XQ4+5CKh/+IwoNlBOe3q1BnEDbfXTpykM0OeZBjd0mpcAd8MzfUKc2ufJzRp0m58AbfOTfdTQFT38qZ3Qc54CsPOp4dGhKer0hxqg75wFNDx0elToUU6btEqDWIK2atJpSojp82y9G7rPX4C7/tk+oaTbPRs9CIE8Bng2PpYcMo57zIWQyGeAZ1JciFDH7IfIwqFSNTRcvg1iC9vSQ8KQXyC6sPbUEJA6rU180UX9DTpn6PVNG8QX2qb2N+hbwgsuiDB43k7UNcv9jRBjOPawRc+ub4QoQ+NI/TKctQPiDHsuMeiU4dRfqEjD+jNMumQcOMMPoeZfcJJRj3q91wKxhpZvrDoUPekQRBs8r8XojmGEC+IN7nsNOmO+tgUiDp6RZl0xXrqWijm67mqzjhjPqGqFmIN/2TlG/bB+54Wog3dGP9047oMWiDt4v+qmE+pEhGhRALwaqwtRuZro894dpQOmm7dA9GFHYUTwXbSyTfzR+quUYOs/uw3iD23LhweZdSpCuEgAlqYFVcwHkAX4ICGIjr/bJw9anzg+aMyj90Ae4EC5OViuWuuXCXRrhikojOfXIsSLBmD9FUowDJsL2YDfTgqC+B8gHzA1NeBiX/TIiLZ3ugeYemcTZAQOP6wGlDpuP+QEDt4dHUDmGzdBVmBTpho4Z6yEvMDaCwMmaS5kBpbbAsTyRavc8P+QFBBxr7ohN6B9kGDouuPubYTsgOuZ+C5T83dBfmBXcWRXXbYGMgQ7b+wi62+QI9hi7QpD0iIqS2jNYEPnJX+uQZZA+8beaQlPNkGeoOX1np0UOWE/ZAqcD8Z0ztV7IVfgHNEZhlP3Qbag+XSlQ8ZhKyFfsP48Y0f6V/pkjG/WiR1IefsYZAy0L63tinnoKOQMXJNi22HK8UDWQHvI9A/K1c2QN2i+yfx3F66GzMGWK5W/DJ/XJnfalpxDCLF94YHcgW/aAJLwpheyB60f93oA7CpQgHc8csgDOcS0Yf+F/Rf2X9h/Yf+F/Rf2X9h/Yf+F/Rf2X9h/Yf+F/Rf2X9h/Yf+F/Rf2X9h/Yf+F/Rf2X9h/Yf+F/Rf2X9h/Yf+F/Rf233/N2i+HtDs8MshzX+x9mvzxvpFAkt5olj2ej1IIIf2+1eRO27zh5K+nrJQ7P19I/lY5vVHmNF+t/B0xZByUN54cE/lny/gmWXP4wRjS3viJh+XMsdd6kfanvueWMb6f0khH+zqofKELh5IOG1I2Uemy/2RDxwg5f7Ns2Xs16dSIgm1yZf+EyM4hsfc1yZSmJxNIZ/d4tVmeeL9IJp3f4we/LKGzkwxdQKJW+iXJL1bStSevlCNrziNdbL5xrQzZlqN2FYkq2ic/nHfHkq6PfPKo7HC/GkcC0fKST260fmkhgdmtolVqzE0igTrIITOWnE4C1nTJSnmx+TpT4BBz5lZZsWtkBAnoMbvlRNMdKgls9UGPjPC8oJJAj39bRnwZTwLfOlU+zB1EgtB46iIqGWrPNwYDIeeu8ssE/9qrSLBmbaQSYfcIc9CYx7rkQfNdUSR4YybKg3diSDAnfiILvv0XCe60n7wyoG12fxLsJ1e1ib+2VReRoDdd2UCF39abTcFHlPTDok/LjSJ6qBaLvokq0ceoR9wiz/NaLNHL5A/d4s77TSrRzyHTfaLON/cUoqPGU2upmKNrLjLqCTFe5BRz7ovNRF8Ntx4Sca4RBqK3ESWHxNuhSdFEfxNfPiLaWt7rRfTY9pUm1nwVA426ZLDXUJFGfznFQHS67xqRtn24gej2ddvE2d7riY6rY/aKsr3lFj0j3R49LMZcz8YTfe/5TosIa/umt0HnSI+fWsVX2/RUov+9HeJr5RASCs9vEF3bLiAh0ZS5RWztGqWGBhJ5d7PIOvJALAmVUTdVH6Fiih6pvjGahNDI/PkH/OLJf2B+fiQJrYakMZObqFiiTZPHJBlIyFVsOZWaSNIqc2wKCclKana1TxT5qrNTFRKylW43LzxCxQ89svDmbgoJ7ZF5VQf8Ysd/oCovkoR+Q9LYiiYqbmhTxdgkA2FCxZZXqYkarTLPphBmVFJzqn0ixledk6oQplTib110lIoVenTRrfEKYc/IXEejX5z4Gx25kYRNDUnjpjipGKHOKeOSDIRZFVt+hSZCtIp8m0KYVrHmVvtEh68616oQ5lUS0pe4qLigriXpCQph48ichY1+MeFvXJgTSRg6cfxUJxUP1Dl1fCJha8VWUKGJBq2iwKYQ5laseQ6fSPA58qwKYXJTj8ylzVQM0OalmT1MhN0jsxY7/fzndy7OiiSMnzh+mpPyHXVOG59I2N9oHzFZ4zlt8gi7kXChYs13+HjN58i3KoQbTYlZNW7KX9Rdk5VoInxpyVzq9POV37k000I4tOdt052Un6hz+m09CZ8a7SMna7ykTR5pNxJuVawFDh8P+RwFVoVwrSkpZ3kL5RvasjwnyUT415KxrMnPL/6mZRkWwsk9bp/hpHxCnTNu70H42WgfVeHhEU/FKLuRcLViK3T4eMPnKLQphLtNvXNXaJQfqLYit7eJ8Lklo+agnw/8B2syLITjE4pmOSn7UeesogTC90b7mAoP63kqxtiNhPsVe6HDy3JeR6FdIULQlJy3ystq3lV5ySYiDi0ZNQf97OU/WJNhIYIxoWi2k7IVdc4uSiDi0WgfW9nCUi2VY+1GIiQV+wiHl5W8jhF2hQhLc0rB6lYWal1dkGImYtOSsfwQZRt6aHmGhQjQ7hPmOCm7UOecCd2JGDXax01xs4p7yji7kQhTJW2Ew8siXseINIUIVXNq4UIPa7QsKEw1E1YFAFZQOCAUCAAAEGAAnQEqxgEAAj51OphKJKMioaGQyUCQDolnbuF0jkT+AfgBhAGIAVwB3gH4AfoB/QE9PVD+u/nuzJd4+z3p7N1PjOoBfp/Ot8L/c/RV/APUx/AP67+vHwAfwD+V/sZ1gPMB/Of9f6yXoT/0vqAf0TqB94e/tn/d6gD//+oB/9uvX6Pf0T8APoB7ABCIB57hgPHUNTJwudUPfYxZfPOu3Y6hRMszz49DNoZs9PMDnN82HiiGbPib7c9IL61RuZn6s96rsLpoyl351GrZ5KF7fzK6zUYa9tFpfAT9USFJhaMvp7ma/jaYsv2vF7PcPOCpN2wfZAzVAoh2dmviKjGLL6MrrL2lKLDAadR2d0l3CVEA2SitP7UBzuEQC6UIk2/8hi/gHL8Ej0ZHn/iKkbdC8bSzazO+WrLmRV0pM76lqg+lPvuCrxez2/mQNhq8YlJrkxoBwXjaWbWZ30HhDYs74+gM/+rPiLejGI+FSAKvDoNe4B8ieha1NvxYLOzX5+8OMW1fO3TNXjVjDvpxd9v5kef+IqRt0LxtLNrM76DwhsWd8fQHO4RALpQiTb/226ZeW1z7XhW1M18Rb0YxHwqQBV4dBr3AiZm0LWpt+LBZ2a/P3hxi2rttl7fzK6y9qAz/6pltc+14dBsNfEW9GMR8KkAVeHQa9wD5E9C1qbfiwWdmvz94cYtq+dumavGrGHfTi77fzI8/8RUjboXjaWbWZ30HhDYs74+gOdwiAXShEm3/tt0y8trn2vCtqZr4i3oxiPhUgCrw6DXuBEzNoWtTb8WCzs1+fvDjFtXbbL2/mV1l7UBn7lPiZ3x9Ac7hEAulCJNv/Z+MJak7+MSk1yY0A4LxtLNrM75Zx+JIBcCNbnKg2XjaAFL/5+9t8IbEUBTYj+zTfbakeBVlrUEa/jMj+4KvF7Pb8K070Cixg9lUVfSLWuNou1QfxtACl/8/e298wVWDywELZH0Da9TLNxcypaRh2Xt/Mrny6q9bSOl99v50UDa9TLNxcz66N9wU/KG9sNnu9bSOcLwAAP6wdOdGtE3L6Y8KhSBmIj4BRRM+8hdwdi0OA4liy+IyfeVLXo6nkW/WOw+BFygSudVy9yAAzQNo7q0MEWWzcG9tzTnI56YJuuyTF33E8lPRrpd9KUms47GbYHuPifBtmG9iMe/3s+BQdbIJLA+1Uy4WA/5RUSOSIG9k9sTvjPEyY9fHGJJqWfXJzBnYP8pn/4JD//UedmMqrwjyTtf1AedVrhUYJxvxfZijCQnceWslExc0DvfqWMhQD4xQWveAQDPNY9USwGPKdulMZ5BD1s7FGNKVFqDtD1VsiXKRT2RQRcCVgYnzKIFbMO7Ua0nanUKGpyQOoMXiqVN/saN8DXX8yGiqjJCwzy6Va1vj1dOvNp2w6j7k+2sNUMsArJ0EVwYCO5nOEohhB5Tb/LfSgsFB84PkTwx7fdt6Ate6j14pK4k18Ez98OfBJ+Tr4S6q4KiKbGNs/Fd2pSFgPV8FbymSE+s0E8FqI7WRqcfgfOrPkUjo471KBC+KdMCmST2gAcdEPug0LkQ7hItRxasjGMzXpepgqVC/d5iSEtAjCciD68PcZdHzKJMTJ4nDybOBLdh6l2vDWKDTkFNWoJsIwmb6LD6arCXedcfyVcdVI5zOhNFsUKlO9lkg1/yumsIHG0/cbRzyo3HdZxfIBHrZODqNSDDtofp+ybTeeXNk5sA4WAilm7bQaifFC4uH49UiP3hXzICwY65FmA40bpghJAzUEtzdy+3JnW+fGxc319GJiVrW3L3yOTd8DxccavEKDKv9vcH+Ocz6Mzj9ckJh9ajy2b1I9EjvkKqDaRtKq4tdebY4DaCfdw93CdmQA4Vj6hgfC60sd8t3dWI4P1NUZZaLkEOCvQFr9J7McdUKMZZaLkEOCvQFr9J7McdUKMZZaLkEOCvQFr9J7McdUKMZZaLkEOCvQFr9J7McdUKMZZaLkEOCvQFr9J7McdUKMZZaLkEOCvQFr9J7McdUKMZZaLkc/uO0UR/Rkp1g5Dr0/reJxKSVP9PsTRprSLOMR2xf7D7d2hiNEBbAJj9LxOcFDocvBKDiQNjHO8HsM8ebWa7PAaKdn0+w2av4zD33/LX//NHxA+qRkmfUE3JqouVFOnCgV4e1PNsdDbrM/2fvA0kUHdk9H/tN+ssd/9j5i3jk8hiYOMc1gaSGdzgsM3PhOZLOQ1kWne8sImBg3O5bTjLIScH2YKjkZxZxiO2iBAtUADJLMK1BU4o7KjmWZm182Wl/U6pxWEM/YAeuIf9ulXV+THulZLaPHvugn8aQJj5tpzxN12+JKKbOoUj1DBA3o/+XslAwB8S3Jr/Trn3M40jq+8JcE2rMQKzIPGoQY/3hDO0TLKNcjfeYu/njKXR37DJNDcMonbiDh7DFSlleFAUukN+nhuFoC1+lDFduiz9r+d7y01AfSQ6k4TnGjgGgI9HoXPSXmPvXZYAT79/n/7DUoboo4dEcORVrY5L/yJAbT787la1f5tSwoDkLWM2m+43pj0vr++sm/+JP2/qdTixQwtMQi49qebZKLpih8AcqPtxkbQaQWyUW6VhCxe0X9c9I6DfH3WoduBB3dym4qcKEo7mcgYtbmJj8YAPpQlDPXOlw1VZ7DLI8u5HW5wrYpin1thzyifi1LihzUC9qEHlKzHTFVPeLtXARatBnBB2aLAGDSC2Si3U2zRF2nOW9VvxIimQHISJCz+ftkpkGGmj/ND7mQ0eDOAAAAEVYSUa6AAAARXhpZgAASUkqAAgAAAAGABIBAwABAAAAAQAAABoBBQABAAAAVgAAABsBBQABAAAAXgAAACgBAwABAAAAAgAAABMCAwABAAAAAQAAAGmHBAABAAAAZgAAAAAAAABIAAAAAQAAAEgAAAABAAAABgAAkAcABAAAADAyMTABkQcABAAAAAECAwAAoAcABAAAADAxMDABoAMAAQAAAP//AAACoAQAAQAAAMYBAAADoAQAAQAAAAACAAAAAAAA;" vertex="1" parent="1">
          <mxGeometry x="392.27" y="470" width="17.73" height="20" as="geometry" />
        </mxCell>
      </root>
    </mxGraphModel>
  </diagram>
</mxfile>
